<?xml version="1.0" ?><!DOCTYPE svg  PUBLIC '-//W3C//DTD SVG 1.1//EN'  'http://www.w3.org/Graphics/SVG/1.1/DTD/svg11.dtd'><svg enable-background="new 0 0 128 128" id="Слой_1" version="1.1" viewBox="0 0 128 128" xml:space="preserve" xmlns="http://www.w3.org/2000/svg" xmlns:xlink="http://www.w3.org/1999/xlink"><g/><g><g><path d="M114.3,108.2l10.4-59.7c1.8-10.5-4.9-20.6-15.3-22.9L27.4,7C14,3.9,1.6,15,3.1,28.7L12,107    c1.1,10.1,9.7,17.8,19.9,17.8h62.8C104.4,124.7,112.7,117.8,114.3,108.2z" fill="#D8EFF4"/></g></g><g><g><rect fill="#FFFFFF" height="91.7" width="83.3" x="22.3" y="32.3"/></g><g><polyline fill="#ADA2B5" points="57.3,124 57.3,100.7 70.7,100.7 70.7,124   "/></g><g><g><rect fill="#D8EFF4" height="15" width="16.7" x="55.7" y="39"/></g><g opacity="0.5"><polygon fill="#FFFFFF" points="55.7,54 55.7,39 72.3,39    "/></g><g><rect fill="#D8EFF4" height="15" width="16.7" x="55.7" y="69.8"/></g><g opacity="0.5"><polygon fill="#FFFFFF" points="55.7,84.8 55.7,69.8 72.3,69.8    "/></g><g><rect fill="#D8EFF4" height="15" width="16.7" x="27.3" y="100.7"/></g><g opacity="0.5"><polygon fill="#FFFFFF" points="27.3,115.7 27.3,100.7 44,100.7    "/></g><g><rect fill="#D8EFF4" height="15" width="16.7" x="84" y="100.7"/></g><g opacity="0.5"><polygon fill="#FFFFFF" points="84,115.7 84,100.7 100.7,100.7    "/></g><g><rect fill="#D8EFF4" height="10.8" width="16.7" x="27.3" y="39"/></g><g opacity="0.5"><polygon fill="#FFFFFF" points="27.3,49.8 27.3,39 44,39    "/></g><g><rect fill="#D8EFF4" height="10.8" width="16.7" x="84" y="39"/></g><g opacity="0.5"><polygon fill="#FFFFFF" points="84,49.8 84,39 100.7,39    "/></g><g><rect fill="#D8EFF4" height="10.8" width="16.7" x="27.3" y="69.8"/></g><g opacity="0.5"><polygon fill="#FFFFFF" points="27.3,80.7 27.3,69.8 44,69.8    "/></g><g><rect fill="#D8EFF4" height="10.8" width="16.7" x="84" y="69.8"/></g><g opacity="0.5"><polygon fill="#FFFFFF" points="84,80.7 84,69.8 100.7,69.8    "/></g></g><g><path d="M22.3,81.3c-0.8,0-1.5-0.7-1.5-1.5V63.2c0-0.8,0.7-1.5,1.5-1.5s1.5,0.7,1.5,1.5v16.7    C23.8,80.7,23.2,81.3,22.3,81.3z" fill="#62345B"/></g><g><path d="M105.7,125.5H22.3c-0.4,0-0.8-0.2-1.1-0.4s-0.4-0.7-0.4-1.1l0-30c0-0.8,0.7-1.5,1.5-1.5l0,0    c0.8,0,1.5,0.7,1.5,1.5l0,28.5h80.3V94c0-0.8,0.7-1.5,1.5-1.5s1.5,0.7,1.5,1.5v30C107.2,124.8,106.5,125.5,105.7,125.5z" fill="#62345B"/></g><g><path d="M105.7,81.3c-0.8,0-1.5-0.7-1.5-1.5V63.2c0-0.8,0.7-1.5,1.5-1.5s1.5,0.7,1.5,1.5v16.7    C107.2,80.7,106.5,81.3,105.7,81.3z" fill="#62345B"/></g><g opacity="0.2"><rect fill="#62345B" height="4.2" width="83.3" x="22.3" y="32.3"/></g><g><rect fill="#ADA2B5" height="8.3" width="100" x="14" y="24"/></g><g><path d="M105.7,50.5c-0.8,0-1.5-0.7-1.5-1.5V32.3c0-0.8,0.7-1.5,1.5-1.5h6.8v-5.3h-97v5.3h6.8    c0.4,0,0.8,0.2,1.1,0.4s0.4,0.7,0.4,1.1l0,16.7c0,0.8-0.7,1.5-1.5,1.5l0,0c-0.8,0-1.5-0.7-1.5-1.5l0-15.2H14    c-0.8,0-1.5-0.7-1.5-1.5V24c0-0.8,0.7-1.5,1.5-1.5h100c0.8,0,1.5,0.7,1.5,1.5v8.3c0,0.8-0.7,1.5-1.5,1.5h-6.8V49    C107.2,49.8,106.5,50.5,105.7,50.5z" fill="#62345B"/></g><g><path d="M114,33.8H14c-0.8,0-1.5-0.7-1.5-1.5s0.7-1.5,1.5-1.5h100c0.8,0,1.5,0.7,1.5,1.5S114.8,33.8,114,33.8z" fill="#62345B"/></g><g><g><rect fill="#D8E7AB" height="14.2" width="33.3" x="14" y="49"/></g><g><rect fill="#D8E7AB" height="14.2" width="33.3" x="14" y="79.8"/></g><g><rect fill="#D8E7AB" height="14.2" width="33.3" x="80.7" y="49"/></g><g><rect fill="#D8E7AB" height="14.2" width="33.3" x="80.7" y="79.8"/></g></g><g><g><path d="M47.3,64.7H14c-0.8,0-1.5-0.7-1.5-1.5V49c0-0.8,0.7-1.5,1.5-1.5h33.3c0.8,0,1.5,0.7,1.5,1.5v14.2     C48.8,64,48.2,64.7,47.3,64.7z M15.5,61.7h30.3V50.5H15.5V61.7z" fill="#62345B"/></g><g><path d="M47.3,95.5H14c-0.8,0-1.5-0.7-1.5-1.5V79.8c0-0.8,0.7-1.5,1.5-1.5h33.3c0.8,0,1.5,0.7,1.5,1.5V94     C48.8,94.8,48.2,95.5,47.3,95.5z M15.5,92.5h30.3V81.3H15.5V92.5z" fill="#62345B"/></g><g><path d="M114,64.7H80.7c-0.8,0-1.5-0.7-1.5-1.5V49c0-0.8,0.7-1.5,1.5-1.5H114c0.8,0,1.5,0.7,1.5,1.5v14.2     C115.5,64,114.8,64.7,114,64.7z M82.2,61.7h30.3V50.5H82.2V61.7z" fill="#62345B"/></g><g><path d="M114,95.5H80.7c-0.8,0-1.5-0.7-1.5-1.5V79.8c0-0.8,0.7-1.5,1.5-1.5H114c0.8,0,1.5,0.7,1.5,1.5V94     C115.5,94.8,114.8,95.5,114,95.5z M82.2,92.5h30.3V81.3H82.2V92.5z" fill="#62345B"/></g></g><g><path d="M70.7,125.5c-0.8,0-1.5-0.7-1.5-1.5v-21.8H58.8V124c0,0.8-0.7,1.5-1.5,1.5s-1.5-0.7-1.5-1.5v-23.3    c0-0.8,0.7-1.5,1.5-1.5h13.3c0.8,0,1.5,0.7,1.5,1.5V124C72.2,124.8,71.5,125.5,70.7,125.5z" fill="#62345B"/></g><g><g><path d="M72.3,55.5H55.7c-0.8,0-1.5-0.7-1.5-1.5V39c0-0.8,0.7-1.5,1.5-1.5h16.7c0.8,0,1.5,0.7,1.5,1.5v15     C73.8,54.8,73.2,55.5,72.3,55.5z M57.2,52.5h13.7v-12H57.2V52.5z" fill="#62345B"/></g><g><path d="M72.3,86.3H55.7c-0.8,0-1.5-0.7-1.5-1.5v-15c0-0.8,0.7-1.5,1.5-1.5h16.7c0.8,0,1.5,0.7,1.5,1.5v15     C73.8,85.7,73.2,86.3,72.3,86.3z M57.2,83.3h13.7v-12H57.2V83.3z" fill="#62345B"/></g><g><path d="M44,117.2H27.3c-0.8,0-1.5-0.7-1.5-1.5v-15c0-0.8,0.7-1.5,1.5-1.5H44c0.8,0,1.5,0.7,1.5,1.5v15     C45.5,116.5,44.8,117.2,44,117.2z M28.8,114.2h13.7v-12H28.8V114.2z" fill="#62345B"/></g><g><path d="M100.7,117.2H84c-0.8,0-1.5-0.7-1.5-1.5v-15c0-0.8,0.7-1.5,1.5-1.5h16.7c0.8,0,1.5,0.7,1.5,1.5v15     C102.2,116.5,101.5,117.2,100.7,117.2z M85.5,114.2h13.7v-12H85.5V114.2z" fill="#62345B"/></g><g><path d="M44,49.7c-0.8,0-1.5-0.7-1.5-1.5v-7.7H28.8v7.7c0,0.8-0.7,1.5-1.5,1.5s-1.5-0.7-1.5-1.5V39     c0-0.8,0.7-1.5,1.5-1.5H44c0.8,0,1.5,0.7,1.5,1.5v9.2C45.5,49,44.8,49.7,44,49.7z" fill="#62345B"/></g><g><path d="M100.7,49.7c-0.8,0-1.5-0.7-1.5-1.5v-7.7H85.5v7.7c0,0.8-0.7,1.5-1.5,1.5s-1.5-0.7-1.5-1.5V39     c0-0.8,0.7-1.5,1.5-1.5h16.7c0.8,0,1.5,0.7,1.5,1.5v9.2C102.2,49,101.5,49.7,100.7,49.7z" fill="#62345B"/></g><g><path d="M44,80.5c-0.8,0-1.5-0.7-1.5-1.5v-7.7H28.8V79c0,0.8-0.7,1.5-1.5,1.5s-1.5-0.7-1.5-1.5v-9.2     c0-0.8,0.7-1.5,1.5-1.5H44c0.8,0,1.5,0.7,1.5,1.5V79C45.5,79.8,44.8,80.5,44,80.5z" fill="#62345B"/></g><g><path d="M100.7,80.5c-0.8,0-1.5-0.7-1.5-1.5v-7.7H85.5V79c0,0.8-0.7,1.5-1.5,1.5s-1.5-0.7-1.5-1.5v-9.2     c0-0.8,0.7-1.5,1.5-1.5h16.7c0.8,0,1.5,0.7,1.5,1.5V79C102.2,79.8,101.5,80.5,100.7,80.5z" fill="#62345B"/></g></g></g><g opacity="0.2"><polygon fill="#62345B" points="22.3,63.2 47.3,63.2 47.3,67.3 22.3,64.8  "/></g><g opacity="0.2"><polygon fill="#62345B" points="22.3,94 47.3,94 47.3,98.2 22.3,95.7  "/></g><g opacity="0.2"><polygon fill="#62345B" points="80.7,63.2 105.7,63.2 105.7,67.3 80.7,64.8  "/></g><g opacity="0.2"><polygon fill="#62345B" points="80.7,94 105.7,94 105.7,98.2 80.7,95.7  "/></g></svg>