<?xml version="1.0" ?><!DOCTYPE svg  PUBLIC '-//W3C//DTD SVG 1.1//EN'  'http://www.w3.org/Graphics/SVG/1.1/DTD/svg11.dtd'><svg enable-background="new 0 0 128 128" id="Слой_1" version="1.1" viewBox="0 0 128 128" xml:space="preserve" xmlns="http://www.w3.org/2000/svg" xmlns:xlink="http://www.w3.org/1999/xlink"><g><g><rect fill="#ECEBEC" height="8" width="10" x="109" y="26"/></g><g><polyline fill="#FFFFFF" points="120,84 120,124 9,124 9,84   "/></g><g opacity="0.2"><polygon fill="#62345B" points="8,84 8,89 28,89 28,124 34,124 34,84   "/></g><g><polygon fill="#FFFFFF" points="94,84 64,54.2 34,84 34,124 94,124   "/></g><g><rect fill="#D8EFF4" height="15" width="16" x="104" y="94"/></g><g opacity="0.5"><polygon fill="#FFFFFF" points="104,94 120,94 104,109   "/></g><g><rect fill="#D8EFF4" height="15" width="16" x="9" y="94"/></g><g><path d="M120,125.5H9c-0.8,0-1.5-0.7-1.5-1.5V84c0-0.8,0.7-1.5,1.5-1.5s1.5,0.7,1.5,1.5v38.5h108V84    c0-0.8,0.7-1.5,1.5-1.5s1.5,0.7,1.5,1.5v40C121.5,124.8,120.8,125.5,120,125.5z" fill="#62345B"/></g><g><polygon fill="#EE7F8F" points="124,84 94,84 64,54 34,84 4,84 4,34 124,34   "/></g><g opacity="0.2"><polygon fill="#62345B" points="64,54 66,54 104,84 120,84 120,89 100,89 100,124 94,124 94,84   "/></g><g><path d="M124,85.5H94c-0.4,0-0.8-0.2-1.1-0.4L64,56.1L35.1,85.1c-0.3,0.3-0.7,0.4-1.1,0.4H4    c-0.8,0-1.5-0.7-1.5-1.5V34c0-0.8,0.7-1.5,1.5-1.5h120c0.8,0,1.5,0.7,1.5,1.5v50C125.5,84.8,124.8,85.5,124,85.5z M94.6,82.5h27.9    v-47H5.5v47h27.9l29.6-29.6c0.6-0.6,1.5-0.6,2.1,0L94.6,82.5z" fill="#62345B"/></g><g><path d="M34,125.5c-0.8,0-1.5-0.7-1.5-1.5V84c0-0.8,0.7-1.5,1.5-1.5s1.5,0.7,1.5,1.5v40    C35.5,124.8,34.8,125.5,34,125.5z" fill="#62345B"/></g><g><path d="M94,125.5c-0.8,0-1.5-0.7-1.5-1.5V84c0-0.8,0.7-1.5,1.5-1.5s1.5,0.7,1.5,1.5v40    C95.5,124.8,94.8,125.5,94,125.5z" fill="#62345B"/></g><g><rect fill="#ADA2B5" height="30" width="20" x="54" y="94"/></g><g><path d="M74,125.5H54c-0.8,0-1.5-0.7-1.5-1.5V94c0-0.8,0.7-1.5,1.5-1.5h20c0.8,0,1.5,0.7,1.5,1.5v30    C75.5,124.8,74.8,125.5,74,125.5z M55.5,122.5h17v-27h-17V122.5z" fill="#62345B"/></g><g><path d="M120,110.5L120,110.5l-16,0c-0.8,0-1.5-0.7-1.5-1.5V94c0-0.4,0.2-0.8,0.4-1.1s0.7-0.4,1.1-0.4l0,0l16,0    c0.8,0,1.5,0.7,1.5,1.5v15c0,0.4-0.2,0.8-0.4,1.1S120.4,110.5,120,110.5z M105.5,107.5l13,0v-12l-13,0V107.5z" fill="#62345B"/></g><g><path d="M9,110.5c-0.4,0-0.8-0.2-1.1-0.4s-0.4-0.7-0.4-1.1V94c0-0.8,0.7-1.5,1.5-1.5l16,0c0.4,0,0.8,0.2,1.1,0.4    s0.4,0.7,0.4,1.1v15c0,0.8-0.7,1.5-1.5,1.5L9,110.5z M10.5,95.5v12l13,0v-12L10.5,95.5z" fill="#62345B"/></g><g><path d="M119,35.5h-10c-0.8,0-1.5-0.7-1.5-1.5v-8c0-0.8,0.7-1.5,1.5-1.5h10c0.8,0,1.5,0.7,1.5,1.5v8    C120.5,34.8,119.8,35.5,119,35.5z M110.5,32.5h7v-5h-7V32.5z" fill="#62345B"/></g></g><g><g opacity="0.2"><path d="M55.3,72.2c0.3-1.5,0.5-3,0.5-4.5C55.9,56.8,47,48,36.1,48c-10.1,0-18.4,7.6-19.6,17.4    C10.1,68.7,5.5,74.8,4,81.9V84l5,0v18.1c4.4,5.4,11.1,8.8,18.6,8.8h15.9c11.7,0,21.2-9.5,21.2-21.2C64.7,82.7,61.1,76.1,55.3,72.2    z" fill="#62345B"/></g><g><path d="M49.1,74.6c1.1-2.1,1.7-4.4,1.7-6.9c0-8.1-6.6-14.7-14.7-14.7s-14.7,6.6-14.7,14.7c0,0.3,0,0.7,0,1    c-7.5,2.6-13,9.7-13,18.1c0,10.6,8.6,19.1,19.1,19.1h15.9c8.9,0,16.2-7.2,16.2-16.2C59.7,82.8,55.3,76.9,49.1,74.6z" fill="#D8E7AB"/></g><g><path d="M43.5,107.4H27.6C16.2,107.4,7,98.2,7,86.8c0-8.5,5.2-16,12.9-19.1c0-8.9,7.3-16.2,16.2-16.2    c8.9,0,16.2,7.3,16.2,16.2c0,2.1-0.4,4.2-1.2,6.1c6.1,2.9,10,9.1,10,15.9C61.2,99.5,53.2,107.4,43.5,107.4z M36.1,54.5    c-7.3,0-13.2,5.9-13.2,13.2c0,0.3,0,0.6,0,0.9c0,0.7-0.4,1.3-1,1.5c-7.2,2.4-12,9.1-12,16.7c0,9.7,7.9,17.6,17.6,17.6h15.9    c8.1,0,14.7-6.6,14.7-14.7c0-6.1-3.8-11.6-9.6-13.8c-0.4-0.2-0.7-0.5-0.9-0.9s-0.1-0.9,0.1-1.2c1-1.9,1.5-4,1.5-6.2    C49.4,60.4,43.4,54.5,36.1,54.5z" fill="#62345B"/></g><g><path d="M34.1,124.5c-0.8,0-1.5-0.7-1.5-1.5V73.6c0-0.8,0.7-1.5,1.5-1.5s1.5,0.7,1.5,1.5V123    C35.6,123.8,34.9,124.5,34.1,124.5z" fill="#62345B"/></g><g><path d="M34.1,100.2c-0.5,0-1.1-0.3-1.3-0.8c-0.4-0.7-0.1-1.6,0.7-2l11.8-5.9c0.7-0.4,1.6-0.1,2,0.7    c0.4,0.7,0.1,1.6-0.7,2L34.8,100C34.5,100.1,34.3,100.2,34.1,100.2z" fill="#62345B"/></g><g><path d="M34.1,88.4c-0.2,0-0.5-0.1-0.7-0.2l-11.8-5.9c-0.7-0.4-1-1.3-0.7-2c0.4-0.7,1.3-1,2-0.7l11.8,5.9    c0.7,0.4,1,1.3,0.7,2C35.2,88.1,34.6,88.4,34.1,88.4z" fill="#62345B"/></g></g></svg>