<?xml version="1.0" ?><!DOCTYPE svg  PUBLIC '-//W3C//DTD SVG 1.1//EN'  'http://www.w3.org/Graphics/SVG/1.1/DTD/svg11.dtd'><svg enable-background="new 0 0 128 128" id="Слой_1" version="1.1" viewBox="0 0 128 128" xml:space="preserve" xmlns="http://www.w3.org/2000/svg" xmlns:xlink="http://www.w3.org/1999/xlink"><g><g><polygon fill="#F2E7AC" points="14,57 14,124 114,124 114,57 64,14.2   "/></g><g opacity="0.2"><polygon fill="#62345B" points="14,62.6 63.7,21.2 63.8,14.5 14,57   "/></g><g opacity="0.2"><polygon fill="#62345B" points="114,63.6 114,57 65,15.1 65,15.1 65,74.9 70,84.9 70,124 78,124 78,83.1 73,73.1 73,28.6   "/></g><g><polyline fill="#ECEBEC" points="54,124 54,84 59,74 59,4 69,4 69,74 74,84 74,124   "/></g><g><polygon fill="#C9ADA8" points="58.7,18.9 9.2,60.1 4.1,53.9 58.8,8.3   "/></g><g><polygon fill="#C9ADA8" points="69,18.6 118.8,61.1 123.9,54.9 69.2,8.3   "/></g><g><path d="M114,125.5H14c-0.8,0-1.5-0.7-1.5-1.5V57c0-0.8,0.7-1.5,1.5-1.5s1.5,0.7,1.5,1.5v65.5h97V57    c0-0.8,0.7-1.5,1.5-1.5s1.5,0.7,1.5,1.5v67C115.5,124.8,114.8,125.5,114,125.5z" fill="#62345B"/></g><g><g><rect fill="#D8EFF4" height="15" width="22" x="83" y="60"/></g><g><rect fill="#D8EFF4" height="15" width="22" x="23" y="60"/></g><g><rect fill="#D8EFF4" height="15" width="22" x="83" y="94"/></g><g><rect fill="#D8EFF4" height="15" width="22" x="23" y="94"/></g></g><g><g><path d="M83,76.5c-0.4,0-0.8-0.2-1.1-0.4s-0.4-0.7-0.4-1.1V60c0-0.8,0.7-1.5,1.5-1.5l22,0c0.4,0,0.8,0.2,1.1,0.4     s0.4,0.7,0.4,1.1v15c0,0.8-0.7,1.5-1.5,1.5L83,76.5z M84.5,61.5v12l19,0v-12L84.5,61.5z" fill="#62345B"/></g><g><path d="M23,76.5c-0.4,0-0.8-0.2-1.1-0.4s-0.4-0.7-0.4-1.1V60c0-0.8,0.7-1.5,1.5-1.5l22,0c0.4,0,0.8,0.2,1.1,0.4     s0.4,0.7,0.4,1.1v15c0,0.8-0.7,1.5-1.5,1.5L23,76.5z M24.5,61.5v12l19,0v-12L24.5,61.5z" fill="#62345B"/></g><g><path d="M83,110.5c-0.4,0-0.8-0.2-1.1-0.4s-0.4-0.7-0.4-1.1V94c0-0.8,0.7-1.5,1.5-1.5l22,0c0.4,0,0.8,0.2,1.1,0.4     s0.4,0.7,0.4,1.1v15c0,0.8-0.7,1.5-1.5,1.5L83,110.5z M84.5,95.5v12l19,0v-12L84.5,95.5z" fill="#62345B"/></g><g><path d="M23,110.5c-0.4,0-0.8-0.2-1.1-0.4s-0.4-0.7-0.4-1.1V94c0-0.8,0.7-1.5,1.5-1.5l22,0c0.4,0,0.8,0.2,1.1,0.4     s0.4,0.7,0.4,1.1v15c0,0.8-0.7,1.5-1.5,1.5L23,110.5z M24.5,95.5v12l19,0v-12L24.5,95.5z" fill="#62345B"/></g></g><path d="M124.8,53.8L70.5,7.5V4c0-0.8-0.7-1.5-1.5-1.5H59c-0.8,0-1.5,0.7-1.5,1.5v3.5L3.2,52.8   c-0.6,0.5-0.7,1.5-0.2,2.1L8.1,61c0.3,0.3,0.6,0.5,1,0.5c0,0,0.1,0,0.1,0c0.3,0,0.7-0.1,1-0.3l47.3-39.4v51.8l-4.8,9.7   c-0.1,0.2-0.2,0.4-0.2,0.7v40c0,0.8,0.7,1.5,1.5,1.5s1.5-0.7,1.5-1.5V84.4l4.8-9.7c0.1-0.2,0.2-0.4,0.2-0.7V5.5h7V74   c0,0.2,0.1,0.5,0.2,0.7l4.8,9.7V124c0,0.8,0.7,1.5,1.5,1.5s1.5-0.7,1.5-1.5V84c0-0.2-0.1-0.5-0.2-0.7l-4.8-9.7V21.9l47.3,40.4   c0.3,0.2,0.6,0.4,1,0.4c0,0,0.1,0,0.1,0c0.4,0,0.8-0.2,1-0.5l5.1-6.1C125.6,55.3,125.5,54.3,124.8,53.8z M9.4,58l-3.2-3.8   l51.3-42.7v6.5L9.4,58z M118.6,59l-48.1-41v-6.5l51.3,43.7L118.6,59z" fill="#62345B"/></g></svg>