<?xml version="1.0" ?><!DOCTYPE svg  PUBLIC '-//W3C//DTD SVG 1.1//EN'  'http://www.w3.org/Graphics/SVG/1.1/DTD/svg11.dtd'><svg enable-background="new 0 0 128 128" id="Слой_1" version="1.1" viewBox="0 0 128 128" xml:space="preserve" xmlns="http://www.w3.org/2000/svg" xmlns:xlink="http://www.w3.org/1999/xlink"><g><g><path d="M113.5,107.7L123.7,49c1.8-10.3-4.8-20.2-15-22.5L28,8.2c-13.2-3-25.4,7.9-23.9,21.4l8.7,77    c1.1,9.9,9.5,17.5,19.5,17.5h61.8C103.7,124,111.8,117.1,113.5,107.7z" fill="#E5EEBD"/></g></g><g/><g><g><path d="    M64.6,108.9" fill="none" stroke="#62345B" stroke-linecap="round" stroke-linejoin="round" stroke-miterlimit="10" stroke-width="3"/></g><g><path d="    M64.6,108.9" fill="none" stroke="#62345B" stroke-linecap="round" stroke-linejoin="round" stroke-miterlimit="10" stroke-width="3"/></g><g><path d="    M64.6,108.9" fill="none" stroke="#62345B" stroke-linecap="round" stroke-linejoin="round" stroke-miterlimit="10" stroke-width="3"/></g><g><path d="    M64.6,108.9" fill="none" stroke="#62345B" stroke-linecap="round" stroke-linejoin="round" stroke-miterlimit="10" stroke-width="3"/></g><g><g><path d="     M69.8,100.6" fill="none" stroke="#62345B" stroke-linecap="round" stroke-linejoin="round" stroke-miterlimit="10" stroke-width="3"/></g><g><path d="     M69.8,100.6" fill="none" stroke="#62345B" stroke-linecap="round" stroke-linejoin="round" stroke-miterlimit="10" stroke-width="3"/></g><g><path d="     M58.2,100.6" fill="none" stroke="#62345B" stroke-linecap="round" stroke-linejoin="round" stroke-miterlimit="10" stroke-width="3"/></g><g><path d="     M58.2,100.6" fill="none" stroke="#62345B" stroke-linecap="round" stroke-linejoin="round" stroke-miterlimit="10" stroke-width="3"/></g><g><path d="     M69.8,100.6" fill="none" stroke="#62345B" stroke-linecap="round" stroke-linejoin="round" stroke-miterlimit="10" stroke-width="3"/></g><g><path d="     M69.8,100.6" fill="none" stroke="#62345B" stroke-linecap="round" stroke-linejoin="round" stroke-miterlimit="10" stroke-width="3"/></g></g><g><polygon fill="#ADA2B5" points="64,14 18.2,59.8 18.2,124 67.8,124 109.8,124 109.8,59.8 109.8,59.8 109.8,14 96.1,14 96.1,46.1       "/></g><g><path d="M109.8,125.5H18.2c-0.8,0-1.5-0.7-1.5-1.5l0-64.2c0-0.4,0.2-0.8,0.4-1.1l45.8-45.8c0.6-0.6,1.5-0.6,2.1,0    l29.5,29.5V14c0-0.8,0.7-1.5,1.5-1.5h13.8c0.8,0,1.5,0.7,1.5,1.5l0,110C111.3,124.8,110.7,125.5,109.8,125.5z M19.7,122.5h88.7    l0-107H97.6v30.6c0,0.6-0.4,1.2-0.9,1.4c-0.6,0.2-1.2,0.1-1.6-0.3l-31-31L19.7,60.5L19.7,122.5z" fill="#62345B"/></g><g><polygon fill="#D8EFF4" points="25.5,116.7 25.5,63 64,24.5 102.5,63 102.5,116.7   "/></g><g opacity="0.5"><polygon fill="#FFFFFF" points="25.5,116.7 25.5,63 64,24.5 43.8,116.7   "/></g><g><path d="M102.5,118.2h-77c-0.8,0-1.5-0.7-1.5-1.5V63c0-0.4,0.2-0.8,0.4-1.1l38.5-38.5c0.6-0.6,1.5-0.6,2.1,0    L103.6,62c0.3,0.3,0.4,0.7,0.4,1.1v53.6C104,117.5,103.3,118.2,102.5,118.2z M27,115.2h74V63.6l-37-37l-37,37V115.2z" fill="#62345B"/></g><g><path d="M43.8,118.2c-0.8,0-1.5-0.7-1.5-1.5l0-72c0-0.8,0.7-1.5,1.5-1.5s1.5,0.7,1.5,1.5l0,72    C45.3,117.5,44.7,118.2,43.8,118.2z" fill="#62345B"/></g><g><path d="M64,118.2c-0.8,0-1.5-0.7-1.5-1.5l0-91.2c0-0.8,0.7-1.5,1.5-1.5s1.5,0.7,1.5,1.5l0,91.2    C65.5,117.5,64.8,118.2,64,118.2z" fill="#62345B"/></g><g><path d="M84.2,118.2c-0.8,0-1.5-0.7-1.5-1.5v-72c0-0.8,0.7-1.5,1.5-1.5s1.5,0.7,1.5,1.5v72    C85.7,117.5,85,118.2,84.2,118.2z" fill="#62345B"/></g><g><path d="M102.5,64.5h-77c-0.8,0-1.5-0.7-1.5-1.5s0.7-1.5,1.5-1.5h77c0.8,0,1.5,0.7,1.5,1.5S103.3,64.5,102.5,64.5z    " fill="#62345B"/></g></g></svg>