<?xml version="1.0" ?><!DOCTYPE svg  PUBLIC '-//W3C//DTD SVG 1.1//EN'  'http://www.w3.org/Graphics/SVG/1.1/DTD/svg11.dtd'><svg enable-background="new 0 0 128 128" id="Слой_1" version="1.1" viewBox="0 0 128 128" xml:space="preserve" xmlns="http://www.w3.org/2000/svg" xmlns:xlink="http://www.w3.org/1999/xlink"><g><path d="M13.7,108.2L3.3,48.5C1.5,38,8.2,27.9,18.6,25.5l82-18.6c13.4-3,25.8,8.1,24.3,21.7L116,107   c-1.1,10.1-9.7,17.8-19.9,17.8H33.4C23.6,124.7,15.3,117.8,13.7,108.2z" fill="#C3E8F4"/></g><g><g><path d="M62.2,66.4L62.2,66.4c-3.1-8.5,1.3-17.8,9.8-20.9l2.2-0.8c8.5-3.1,17.8,1.3,20.9,9.8l0,0" fill="#C9C4CD"/></g><g opacity="0.2"><g><path d="M76.9,44.4l2.1-0.8c-1.6,0.1-3.3,0.4-4.9,1l-2.2,0.8c-8.5,3.1-12.8,12.5-9.8,20.9v0l4.8-1.7     C64.4,56.3,68.7,47.4,76.9,44.4z" fill="#62345B"/></g></g><g><circle cx="89" cy="88.9" fill="#C9C4CD" r="35"/></g><g opacity="0.2"><g><path d="M66.1,100.8C59.5,82.7,68.9,62.6,87,56c2.3-0.8,4.6-1.4,7-1.8c-5.5-0.8-11.3-0.3-17,1.8     c-18.2,6.6-27.5,26.7-20.9,44.9c5.8,15.9,21.8,25,37.9,22.7C81.7,121.7,70.7,113.4,66.1,100.8z" fill="#62345B"/></g></g><g><path d="M89,113.7c-3.6,0-7.1-0.8-10.5-2.3c-6-2.8-10.6-7.8-12.8-14c-0.3-0.8,0.1-1.6,0.9-1.9    c0.8-0.3,1.6,0.1,1.9,0.9c2,5.5,6,9.9,11.3,12.3c5.3,2.5,11.2,2.7,16.7,0.7c0.8-0.3,1.6,0.1,1.9,0.9c0.3,0.8-0.1,1.6-0.9,1.9    C94.7,113.2,91.8,113.7,89,113.7z" fill="#62345B"/></g><g opacity="0.5"><path d="M110.9,82.4c-0.6,0-1.2-0.4-1.4-1c-1.5-4.1-4.2-7.6-7.7-10.2c-0.7-0.5-0.8-1.4-0.3-2.1    c0.5-0.7,1.4-0.8,2.1-0.3c4,2.9,7,6.9,8.7,11.6c0.3,0.8-0.1,1.6-0.9,1.9C111.3,82.4,111.1,82.4,110.9,82.4z" fill="#FFFFFF"/></g><path d="M123.3,76.4c-4.4-12.1-14.8-20.8-27.1-23.3c-3.6-8.7-13.6-13.2-22.5-9.9L71.4,44c-4.5,1.6-8.1,4.9-10.1,9.2   c-1.9,4.1-2.2,8.6-0.9,12.8c-1.8,2.3-3.3,4.7-4.6,7.4c-4.1,8.8-4.6,18.7-1.2,27.9c5.2,14.4,19,24,34.3,24c4.3,0,8.5-0.7,12.5-2.2   C120.4,116.3,130.2,95.3,123.3,76.4z M72.4,46.8l2.2-0.8c6.9-2.5,14.4,0.4,17.9,6.5c-1.2-0.1-2.4-0.2-3.6-0.2   c-4.3,0-8.5,0.7-12.5,2.2c-5.2,1.9-9.8,4.9-13.6,8.7C61.7,56.4,65.6,49.3,72.4,46.8z M100.4,120.4c-3.7,1.3-7.6,2-11.5,2   c-14,0-26.7-8.9-31.5-22.1c-3.1-8.4-2.7-17.5,1.1-25.6s10.5-14.3,18.9-17.3c3.7-1.3,7.6-2,11.5-2c14,0,26.7,8.9,31.5,22.1   C126.8,94.8,117.8,114,100.4,120.4z" fill="#62345B"/><g><path d="M73,46.5c-0.6,0-1.2-0.4-1.4-1l-13.1-36c-0.3-0.8,0.1-1.6,0.9-1.9c0.8-0.3,1.6,0.1,1.9,0.9l13.1,36    c0.3,0.8-0.1,1.6-0.9,1.9C73.4,46.5,73.2,46.5,73,46.5z" fill="#62345B"/></g><g><path d="M44,115.5H14c-0.8,0-1.5-0.7-1.5-1.5s0.7-1.5,1.5-1.5h30c0.8,0,1.5,0.7,1.5,1.5S44.8,115.5,44,115.5z" fill="#62345B"/></g><g><path d="M8,115.5H4c-0.8,0-1.5-0.7-1.5-1.5s0.7-1.5,1.5-1.5h4c0.8,0,1.5,0.7,1.5,1.5S8.8,115.5,8,115.5z" fill="#62345B"/></g><g><path d="M34,95.5H14c-0.8,0-1.5-0.7-1.5-1.5s0.7-1.5,1.5-1.5h20c0.8,0,1.5,0.7,1.5,1.5S34.8,95.5,34,95.5z" fill="#62345B"/></g><g><path d="M24,75.5H4c-0.8,0-1.5-0.7-1.5-1.5s0.7-1.5,1.5-1.5h20c0.8,0,1.5,0.7,1.5,1.5S24.8,75.5,24,75.5z" fill="#62345B"/></g></g></svg>