<?xml version="1.0" ?><!DOCTYPE svg  PUBLIC '-//W3C//DTD SVG 1.1//EN'  'http://www.w3.org/Graphics/SVG/1.1/DTD/svg11.dtd'><svg enable-background="new 0 0 128 128" id="Слой_1" version="1.1" viewBox="0 0 128 128" xml:space="preserve" xmlns="http://www.w3.org/2000/svg" xmlns:xlink="http://www.w3.org/1999/xlink"><g><path d="M114.3,107.4l10.4-59.7c1.8-10.5-4.9-20.6-15.3-22.9l-82-18.6C14,3.2,1.5,14.3,3.1,28l8.8,78.3   c1.1,10.1,9.7,17.8,19.9,17.8h62.8C104.3,124,112.6,117,114.3,107.4z" fill="#F2F1F0"/></g><g><g><rect fill="#C9C4CD" height="10" width="80" x="23.5" y="104"/></g><g><g><circle cx="23.5" cy="114" fill="#B09AAC" r="10"/></g><g><circle cx="53.5" cy="114" fill="#B09AAC" r="10"/></g><g opacity="0.2"><polygon fill="#62345B" points="105,104 23.5,104 15.5,108 105,108    "/></g><g><circle cx="23.5" cy="114" fill="#D5D2D6" r="3"/></g><g><circle cx="53.5" cy="114" fill="#D5D2D6" r="3"/></g><g><path d="M113.7,114h5.3c2.8,0,5-2.2,5-5V91.5l-7.6-20.9c-1.4-4-5.2-6.6-9.4-6.6H88v40h16H88h16L113.7,114z" fill="#ACD9C8"/></g><g><rect fill="#FFFFFF" height="5" width="5" x="119" y="102"/></g><g><path d="M124,108.5h-5c-0.8,0-1.5-0.7-1.5-1.5v-5c0-0.8,0.7-1.5,1.5-1.5h5c0.8,0,1.5,0.7,1.5,1.5v5     C125.5,107.8,124.8,108.5,124,108.5z M120.5,105.5h2v-2h-2V105.5z" fill="#62345B"/></g><g opacity="0.2"><g><path d="M116.4,70.6c-1.4-4-5.2-6.6-9.4-6.6H88v5h19c4.2,0,8,2.6,9.4,6.6l7.6,20.9v-5L116.4,70.6z" fill="#62345B"/></g></g><g><rect fill="#FFFFFF" height="3" width="36" x="88" y="94.5"/></g><g><path d="M124,92l-16-3.2c-2.3-0.5-4-2.5-4-4.9V70h11.5" fill="#E5F5FA"/></g><g opacity="0.7"><g><path d="M105.6,87.5L116.7,73l-1.2-3h-0.3l-11.2,14.6C104.2,85.7,104.8,86.7,105.6,87.5z" fill="#FFFFFF"/></g><g><polygon fill="#FFFFFF" points="109.3,88.3 117.7,77.3 117,75.4 107.4,87.9     "/></g></g><g><circle cx="103.5" cy="114" fill="#B09AAC" r="10"/></g><g opacity="0.2"><g><path d="M103.5,107c5,0,9.1,3.7,9.9,8.5c0.1-0.5,0.1-1,0.1-1.5c0-5.5-4.5-10-10-10c-5.5,0-10,4.5-10,10      c0,0.5,0.1,1,0.1,1.5C94.4,110.7,98.5,107,103.5,107z" fill="#62345B"/></g></g><g><path d="M23.5,125.5c-6.3,0-11.5-5.2-11.5-11.5s5.2-11.5,11.5-11.5S35,107.7,35,114S29.9,125.5,23.5,125.5z      M23.5,105.5c-4.7,0-8.5,3.8-8.5,8.5s3.8,8.5,8.5,8.5s8.5-3.8,8.5-8.5S28.2,105.5,23.5,105.5z" fill="#62345B"/></g><g><path d="M23.5,118.5c-2.5,0-4.5-2-4.5-4.5s2-4.5,4.5-4.5s4.5,2,4.5,4.5S26,118.5,23.5,118.5z M23.5,112.5     c-0.8,0-1.5,0.7-1.5,1.5s0.7,1.5,1.5,1.5s1.5-0.7,1.5-1.5S24.4,112.5,23.5,112.5z" fill="#62345B"/></g><g><path d="M53.5,125.5c-6.3,0-11.5-5.2-11.5-11.5s5.2-11.5,11.5-11.5S65,107.7,65,114S59.9,125.5,53.5,125.5z      M53.5,105.5c-4.7,0-8.5,3.8-8.5,8.5s3.8,8.5,8.5,8.5s8.5-3.8,8.5-8.5S58.2,105.5,53.5,105.5z" fill="#62345B"/></g><g><path d="M53.5,118.5c-2.5,0-4.5-2-4.5-4.5s2-4.5,4.5-4.5s4.5,2,4.5,4.5S56,118.5,53.5,118.5z M53.5,112.5     c-0.8,0-1.5,0.7-1.5,1.5s0.7,1.5,1.5,1.5s1.5-0.7,1.5-1.5S54.4,112.5,53.5,112.5z" fill="#62345B"/></g><g><path d="M103.5,125.5c-6.3,0-11.5-5.2-11.5-11.5s5.2-11.5,11.5-11.5S115,107.7,115,114S109.9,125.5,103.5,125.5z      M103.5,105.5c-4.7,0-8.5,3.8-8.5,8.5s3.8,8.5,8.5,8.5s8.5-3.8,8.5-8.5S108.2,105.5,103.5,105.5z" fill="#62345B"/></g><g><circle cx="103.5" cy="114" fill="#D5D2D6" r="3"/></g><g><path d="M103.5,118.5c-2.5,0-4.5-2-4.5-4.5s2-4.5,4.5-4.5s4.5,2,4.5,4.5S106,118.5,103.5,118.5z M103.5,112.5     c-0.8,0-1.5,0.7-1.5,1.5s0.7,1.5,1.5,1.5s1.5-0.7,1.5-1.5S104.4,112.5,103.5,112.5z" fill="#62345B"/></g><g><rect fill="#ACD9C8" height="8" width="14.3" x="71.7" y="110"/></g><g opacity="0.2"><g><rect fill="#62345B" height="3" width="14.3" x="71.7" y="110"/></g></g><g><path d="M86,119.5H71.7c-0.8,0-1.5-0.7-1.5-1.5v-8c0-0.8,0.7-1.5,1.5-1.5H86c0.8,0,1.5,0.7,1.5,1.5v8     C87.5,118.8,86.9,119.5,86,119.5z M73.2,116.5h11.3v-5H73.2V116.5z" fill="#62345B"/></g><g><path d="M93.5,115.5h-7c-0.8,0-1.5-0.7-1.5-1.5s0.7-1.5,1.5-1.5h7c0.8,0,1.5,0.7,1.5,1.5S94.4,115.5,93.5,115.5z" fill="#62345B"/></g><g><path d="M119,115.5h-5.3c-0.8,0-1.5-0.7-1.5-1.5s0.7-1.5,1.5-1.5h5.3c1.9,0,3.5-1.6,3.5-3.5V91.8L115,71.1     c-1.2-3.3-4.4-5.6-8-5.6H89.5v37H104c0.8,0,1.5,0.7,1.5,1.5s-0.7,1.5-1.5,1.5H88c-0.8,0-1.5-0.7-1.5-1.5V64     c0-0.8,0.7-1.5,1.5-1.5h19c4.8,0,9.2,3,10.8,7.6l7.6,20.9c0.1,0.2,0.1,0.3,0.1,0.5V109C125.5,112.6,122.6,115.5,119,115.5z" fill="#62345B"/></g><g><path d="M124,93.5c-0.1,0-0.2,0-0.3,0l-16-3.2c-3-0.6-5.2-3.3-5.2-6.4V70c0-0.8,0.7-1.5,1.5-1.5h11.5     c0.8,0,1.5,0.7,1.5,1.5s-0.7,1.5-1.5,1.5h-10v12.4c0,1.7,1.2,3.1,2.8,3.4l16,3.2c0.8,0.2,1.3,1,1.2,1.8     C125.3,93,124.7,93.5,124,93.5z" fill="#62345B"/></g><g><path d="M71.5,115.5h-8c-0.8,0-1.5-0.7-1.5-1.5s0.7-1.5,1.5-1.5h8c0.8,0,1.5,0.7,1.5,1.5S72.4,115.5,71.5,115.5z" fill="#62345B"/></g><g><path d="M43,115.5h-9.5c-0.8,0-1.5-0.7-1.5-1.5s0.7-1.5,1.5-1.5H43c0.8,0,1.5,0.7,1.5,1.5S43.8,115.5,43,115.5z" fill="#62345B"/></g></g><g><g><polyline fill="#F3CDB9" points="78,74 9,74 4,99 9,104 73,104    "/></g><g opacity="0.2"><polyline fill="#62345B" points="23,74 20,89 25,89    "/></g><g opacity="0.2"><polyline fill="#62345B" points="43,74 40,89 45,89    "/></g><g opacity="0.2"><polyline fill="#62345B" points="63,74 60,89 65,89    "/></g><g><path d="M73,105.5H9c-0.4,0-0.8-0.2-1.1-0.4l-5-5c-0.4-0.4-0.5-0.9-0.4-1.4l5-25C7.7,73,8.3,72.5,9,72.5h68.1     l2.4-13.8c0.1-0.7,0.7-1.2,1.5-1.2h10c0.8,0,1.5,0.7,1.5,1.5s-0.7,1.5-1.5,1.5h-8.7l-7.8,43.8C74.3,105,73.7,105.5,73,105.5z      M9.6,102.5h62.1l4.8-27H10.2l-4.6,23L9.6,102.5z" fill="#62345B"/></g><g><path d="M25,90.5h-5c-0.4,0-0.9-0.2-1.2-0.5c-0.3-0.3-0.4-0.8-0.3-1.2l3-15c0.2-0.8,1-1.3,1.8-1.2     c0.8,0.2,1.3,1,1.2,1.8l-2.6,13.2H25c0.8,0,1.5,0.7,1.5,1.5S25.8,90.5,25,90.5z" fill="#62345B"/></g><g><path d="M45,90.5h-5c-0.4,0-0.9-0.2-1.2-0.5c-0.3-0.3-0.4-0.8-0.3-1.2l3-15c0.2-0.8,1-1.3,1.8-1.2     c0.8,0.2,1.3,1,1.2,1.8l-2.6,13.2H45c0.8,0,1.5,0.7,1.5,1.5S45.8,90.5,45,90.5z" fill="#62345B"/></g><g><path d="M65,90.5h-5c-0.4,0-0.9-0.2-1.2-0.5c-0.3-0.3-0.4-0.8-0.3-1.2l3-15c0.2-0.8,1-1.3,1.8-1.2     c0.8,0.2,1.3,1,1.2,1.8l-2.6,13.2H65c0.8,0,1.5,0.7,1.5,1.5S65.8,90.5,65,90.5z" fill="#62345B"/></g></g></g></svg>