<?xml version="1.0" ?><!DOCTYPE svg  PUBLIC '-//W3C//DTD SVG 1.1//EN'  'http://www.w3.org/Graphics/SVG/1.1/DTD/svg11.dtd'><svg enable-background="new 0 0 128 128" id="Слой_1" version="1.1" viewBox="0 0 128 128" xml:space="preserve" xmlns="http://www.w3.org/2000/svg" xmlns:xlink="http://www.w3.org/1999/xlink"><g><g><path d="M13.6,104L3.3,44.3C1.4,33.8,8.2,23.8,18.5,21.4l82-18.6c13.4-3,25.8,8.1,24.3,21.7l-8.8,78.3    c-1.1,10.1-9.7,17.8-19.9,17.8H33.3C23.6,120.6,15.3,113.6,13.6,104z" fill="#ECEBEC"/><g><g><g><g><path d="M63.5,112.2l-8.2-3.9l-37.7,0.2l-7.8,3.7c-2.9,1.4-4.7,4.2-4.8,7.4h63.3        C68.2,116.4,66.4,113.6,63.5,112.2z" fill="#EEEDEE"/></g></g><g><g><path d="M68.4,121.1c-0.8,0-1.5-0.6-1.5-1.4c-0.1-2.6-1.6-5-4-6.1l-8.2-3.9c-0.7-0.4-1.1-1.3-0.7-2        c0.4-0.7,1.3-1.1,2-0.7l8.2,3.9c3.4,1.6,5.5,4.9,5.7,8.7C69.9,120.4,69.2,121.1,68.4,121.1C68.4,121.1,68.4,121.1,68.4,121.1z        " fill="#B09AAC"/></g></g><g><g><path d="M5.1,121.1C5,121.1,5,121.1,5.1,121.1c-0.9,0-1.5-0.7-1.5-1.6c0.1-3.7,2.3-7.1,5.7-8.7l7.8-3.7        c0.7-0.4,1.6,0,2,0.7c0.4,0.7,0,1.6-0.7,2l-7.8,3.7c-2.4,1.1-3.9,3.5-4,6.1C6.5,120.5,5.9,121.1,5.1,121.1z" fill="#B09AAC"/></g></g></g><g><g><g><path d="M59.2,49.4C55,40.3,47.1,35.7,37.1,35.7c-9.2,0-16.7,4-21.1,11.8c-0.2,0.4-0.4,0.7-0.6,1.1" fill="#DEBAAB"/></g></g><g><g><path d="M59.2,51.9c-0.6,0-1.1-0.3-1.4-0.9c-3.9-8.4-11.1-12.9-20.7-12.9c-8.9,0-15.7,3.8-19.8,11        c-0.4,0.7-1.3,1-2,0.6c-0.7-0.4-1-1.3-0.6-2c4.6-8.1,12.5-12.5,22.4-12.5c10.8,0,19.1,5.2,23.4,14.6c0.3,0.8,0,1.6-0.7,2        C59.6,51.8,59.4,51.9,59.2,51.9z" fill="#B09AAC"/></g></g></g><g><g><g><path d="M62.4,60.9h1.7c1.6,0,2.9,1.3,2.9,2.9V70c0,1.6-1.3,2.9-2.9,2.9h-1.7" fill="#858589"/></g></g><g><g><path d="M11,60.9H9.3c-1.6,0-2.9,1.3-2.9,2.9V70c0,1.6,1.3,2.9,2.9,2.9H11" fill="#CEC8D1"/></g></g><g><g><path d="M36.7,114.6L36.7,114.6c14.2,0,25.7-11.5,25.7-25.7v-30c0-7.1-5.7-12.8-12.8-12.8H23.9        c-7.1,0-12.8,5.7-12.8,12.8v30C11,103.1,22.5,114.6,36.7,114.6z" fill="#CEC8D1"/></g></g><g opacity="0.1"><g><g><path d="M56.7,91.7V57.5c0-6.3-5.1-11.4-11.4-11.4H51c6.3,0,11.4,5.1,11.4,11.4v34.2         c0,12.6-10.2,22.8-22.8,22.8h-5.7h0C46.5,114.6,56.7,104.3,56.7,91.7z" fill="#62345B"/></g></g></g><g><g><path d="M36.7,116.1c-15,0-27.2-12.2-27.2-27.2v-30c0-7.9,6.4-14.3,14.3-14.3h25.7c7.9,0,14.3,6.4,14.3,14.3        v30C63.9,103.9,51.7,116.1,36.7,116.1z M23.9,47.6c-6.3,0-11.3,5.1-11.3,11.3v30c0,13.3,10.8,24.2,24.2,24.2        s24.2-10.8,24.2-24.2v-30c0-6.3-5.1-11.3-11.3-11.3H23.9z" fill="#B09AAC"/></g></g><g><g><path d="M19.4,83.7H54c2.3,0,4.1-1.8,4.1-4.1V65c0-2.3-1.8-4.1-4.1-4.1H19.4c-2.3,0-4.1,1.8-4.1,4.1v14.7        C15.3,81.9,17.1,83.7,19.4,83.7z" fill="#D5D2D6"/></g></g><g opacity="0.1"><g><g><path d="M53.5,78V60.9h1.7c1.6,0,2.9,1.3,2.9,2.9v17.1c0,1.6-1.3,2.9-2.9,2.9H18.2c-1.6,0-2.9-1.3-2.9-2.9V78         H53.5z" fill="#62345B"/></g></g></g><g><g><path d="M52.2,78h-31c-0.9,0-1.6-0.7-1.6-1.6v-8.7c0-0.9,0.7-1.6,1.6-1.6h31c0.9,0,1.6,0.7,1.6,1.6v8.7        C53.8,77.3,53.1,78,52.2,78z" fill="#D8EFF4"/></g></g><g><g><path d="M54,85.2H19.4c-3.1,0-5.6-2.5-5.6-5.6V65c0-3.1,2.5-5.6,5.6-5.6H54c3.1,0,5.6,2.5,5.6,5.6v14.7        C59.6,82.7,57.1,85.2,54,85.2z M19.4,62.4c-1.4,0-2.6,1.2-2.6,2.6v14.7c0,1.4,1.2,2.6,2.6,2.6H54c1.4,0,2.6-1.2,2.6-2.6V65        c0-1.4-1.2-2.6-2.6-2.6H19.4z" fill="#B09AAC"/></g></g><g><g><path d="M52.2,79.5h-31c-1.7,0-3.1-1.4-3.1-3.1v-8.7c0-1.7,1.4-3.1,3.1-3.1h31c1.7,0,3.1,1.4,3.1,3.1v8.7        C55.3,78.1,53.9,79.5,52.2,79.5z M21.2,67.6c-0.1,0-0.1,0.1-0.1,0.1v8.7c0,0.1,0.1,0.1,0.1,0.1h31c0.1,0,0.1-0.1,0.1-0.1v-8.7        c0-0.1-0.1-0.1-0.1-0.1H21.2z" fill="#B09AAC"/></g></g><g><g><path d="M64.1,74.4h-1.7c-0.8,0-1.5-0.7-1.5-1.5s0.7-1.5,1.5-1.5h1.7c0.7,0,1.4-0.6,1.4-1.4v-6.3        c0-0.7-0.6-1.4-1.4-1.4h-1.7c-0.8,0-1.5-0.7-1.5-1.5s0.7-1.5,1.5-1.5h1.7c2.4,0,4.4,2,4.4,4.4V70        C68.4,72.4,66.5,74.4,64.1,74.4z" fill="#B09AAC"/></g></g><g><g><path d="M11,74.4H9.3c-2.4,0-4.4-2-4.4-4.4v-6.3c0-2.4,2-4.4,4.4-4.4H11c0.8,0,1.5,0.7,1.5,1.5        s-0.7,1.5-1.5,1.5H9.3C8.6,62.4,8,63,8,63.8V70c0,0.7,0.6,1.4,1.4,1.4H11c0.8,0,1.5,0.7,1.5,1.5S11.9,74.4,11,74.4z" fill="#B09AAC"/></g></g></g></g><g><g><g><g><path d="M102.8,105.7v5.7l0,0c-3,10.5-17.9,10.5-20.9,0l0,0l0-5.7" fill="#F7EBDE"/></g></g><g><g><g><g><path d="M81.9,111.4L81.9,111.4l-19.3,7.9h28.2c-0.2-0.1-0.3-0.1-0.4-0.2C86.6,118.4,83.1,115.8,81.9,111.4z          " fill="#EEEDEE"/></g></g></g><g><g><g><path d="M122.1,119.2l-19.3-7.9l0,0c-1.3,4.5-4.7,7-8.4,7.7c-0.1,0.1-0.3,0.1-0.4,0.2L122.1,119.2z" fill="#EEEDEE"/></g></g></g></g><g opacity="0.15"><g><path d="M81.9,110.1c4.3,2.4,8.1,2.9,10.5,2.9c2.7,0,6.4-0.6,10.5-2.9v-4.4H81.9V110.1z" fill="#62345B"/></g></g><g><g><path d="M120.5,69c0-23-11.5-34.8-28.2-34.8S64.1,46,64.1,69c-5.4,0.4-4.2,12.7,2,12        c7.9,21.9,18.8,27.7,26.3,27.7s18.4-5.8,26.3-27.7C124.8,81.7,126,69.4,120.5,69z" fill="#F7EBDE"/></g></g><g opacity="0.1"><g><path d="M92.3,34.2c-0.8,0-1.7,0-2.5,0.1c15.4,1.1,25.7,12.9,25.7,34.7c0.1,3.7-0.5,7.4-1.6,10.9l-0.3,1.1        c-7.9,21.9-13.8,27.7-21.3,27.7c7.4,0,18.4-5.8,26.3-27.7l0.3-1.1c1.1-3.5,1.7-7.2,1.6-10.9C120.5,46,109.1,34.2,92.3,34.2z" fill="#62345B"/></g></g><g><g><path d="M120.9,69c-0.1,0-0.2,0-0.3,0c0-23-11.5-34.8-28.2-34.8c-16.5,0-27.8,11.4-28.2,33.5        C75.5,40.7,93.1,77.1,120.9,69z" fill="#DEBAAB"/></g></g><g><g><path d="M62.5,120.7c-0.6,0-1.2-0.4-1.4-0.9c-0.3-0.8,0.1-1.6,0.8-2l19.3-7.9c0.8-0.3,1.6,0.1,2,0.8        c0.3,0.8-0.1,1.6-0.8,2l-19.3,7.9C62.9,120.7,62.7,120.7,62.5,120.7z" fill="#B09AAC"/></g></g><g><g><path d="M122.1,120.7c-0.2,0-0.4,0-0.6-0.1l-19.3-7.9c-0.8-0.3-1.1-1.2-0.8-2c0.3-0.8,1.2-1.1,2-0.8l19.3,7.9        c0.8,0.3,1.1,1.2,0.8,2C123.2,120.4,122.7,120.7,122.1,120.7z" fill="#B09AAC"/></g></g><g><g><path d="M92.3,120.7C92.3,120.7,92.3,120.7,92.3,120.7c-5.7,0-10.3-3.5-11.9-9c0-0.1-0.1-0.3-0.1-0.4v-5.7        c0-0.8,0.7-1.5,1.5-1.5s1.5,0.7,1.5,1.5v5.4c1.5,4.9,5.7,6.6,9,6.6c3.2,0,7.5-1.7,9-6.6v-5.4c0-0.8,0.7-1.5,1.5-1.5        s1.5,0.7,1.5,1.5v5.7c0,0.1,0,0.3-0.1,0.4C102.6,117.2,98,120.7,92.3,120.7z" fill="#B09AAC"/></g></g><g><g><g><path d="M65.5,82.5c-1.9,0-3.5-0.9-4.7-2.6c-1.9-2.6-2.3-6.7-1-9.5c0.8-1.8,2.3-2.8,4.1-3         c0.8-0.1,1.5,0.6,1.6,1.4c0.1,0.8-0.6,1.5-1.4,1.6c-0.3,0-1,0.1-1.6,1.3c-0.8,1.8-0.5,4.8,0.7,6.5c0.7,1,1.6,1.4,2.6,1.3         c0.8-0.1,1.6,0.5,1.7,1.3c0.1,0.8-0.5,1.6-1.3,1.7C66,82.5,65.8,82.5,65.5,82.5z" fill="#B09AAC"/></g></g><g><g><path d="M119.1,82.5c-0.2,0-0.4,0-0.7,0c-0.8-0.1-1.4-0.8-1.3-1.7c0.1-0.8,0.8-1.4,1.7-1.3         c1,0.1,1.9-0.3,2.6-1.3c1.2-1.7,1.5-4.7,0.7-6.5c-0.6-1.2-1.3-1.2-1.6-1.3c-0.8-0.1-1.4-0.8-1.4-1.6c0.1-0.8,0.8-1.4,1.6-1.4         c1.8,0.1,3.3,1.2,4.1,3c1.3,2.8,0.9,6.9-1,9.5C122.6,81.6,120.9,82.5,119.1,82.5z" fill="#B09AAC"/></g></g><g><g><path d="M120.5,70.5c-0.8,0-1.5-0.7-1.5-1.5c0-20.8-10-33.3-26.7-33.3S65.6,48.2,65.6,69         c0,0.8-0.7,1.5-1.5,1.5s-1.5-0.7-1.5-1.5c0-22.7,11.1-36.3,29.7-36.3S122,46.3,122,69C122,69.8,121.4,70.5,120.5,70.5z" fill="#B09AAC"/></g></g><g><g><path d="M92.3,110.2c-5.2,0-18.4-2.8-27.7-28.7c-0.3-0.8,0.1-1.6,0.9-1.9c0.8-0.3,1.6,0.1,1.9,0.9         c8.6,24.1,20.3,26.7,24.9,26.7s16.2-2.6,24.9-26.7c0.3-0.8,1.1-1.2,1.9-0.9c0.8,0.3,1.2,1.1,0.9,1.9         C110.7,107.4,97.5,110.2,92.3,110.2z" fill="#B09AAC"/></g></g></g><g><g><path d="M112.6,71.7c-9.3,0-17.3-4.2-24-7.8c-6-3.2-11.3-6-15.3-4.5c-2.9,1.1-5.4,4.4-7.6,10        c-0.3,0.8-1.2,1.2-1.9,0.9c-0.8-0.3-1.2-1.2-0.9-1.9c2.6-6.6,5.5-10.3,9.3-11.7c5.3-2,11.1,1.1,17.8,4.6        c8.7,4.6,18.5,9.8,30.6,6.2c0.8-0.2,1.6,0.2,1.9,1c0.2,0.8-0.2,1.6-1,1.9C118.4,71.3,115.4,71.7,112.6,71.7z" fill="#B09AAC"/></g></g></g><g><g opacity="0.8"><g><path d="M69.2,86H84c1.9,0,3.5-1.3,4-3.1l0.9-5.1c0.2-1.2,1.2-2,2.4-2l0,0c1.2,0,2.2,0.8,2.4,2l0.9,5.1        c0.5,1.8,2.1,3.1,4,3.1h14.8c2.3,0,4.1-1.8,4.1-4.1h0c0,0,0.6-15.8,0.6-15.8c-0.4-0.4-0.9-0.6-1.5-0.6H65.9        c-0.6,0-1.1,0.2-1.5,0.6c0,0,0.6,16.2,0.6,15.8h0C65.1,84.2,66.9,86,69.2,86z" fill="#ECF8FB"/></g></g><g opacity="0.15"><g><g><path d="M85,82.9l0.7-3.7c0.3-1.9,2.2-3.4,4.1-3.4l0,0c0.4,0,1.5,0.1,1.8,0.3c-0.7,0.3-2.6,1-2.7,1.7L88,82.9         c-0.5,1.8-2.1,3.1-4,3.1h-2.9C83,86,84.6,84.7,85,82.9z" fill="#62345B"/></g></g></g><g><g><path d="M70,76.3c-0.8,0-1.5-0.7-1.5-1.5v-8.9c0-0.8,0.7-1.5,1.5-1.5s1.5,0.7,1.5,1.5v8.9        C71.5,75.6,70.9,76.3,70,76.3z" fill="#B09AAC"/></g></g><g><g><path d="M73.6,72.7c-0.8,0-1.5-0.7-1.5-1.5v-5.3c0-0.8,0.7-1.5,1.5-1.5s1.5,0.7,1.5,1.5v5.3        C75.1,72.1,74.4,72.7,73.6,72.7z" fill="#B09AAC"/></g></g><g opacity="0.1"><g><g><path d="M113.1,81.9l0.2-15.8c-0.4-0.4-0.5-0.6-1.1-0.6h4.4c0.6,0,0.7,0.2,1.1,0.6l-0.2,15.8         c0,2.3-1.8,4.1-4.1,4.1H109C111.3,86,113.1,84.2,113.1,81.9z" fill="#62345B"/></g></g></g><g><g><path d="M118.1,67.6c-0.4,0-0.8-0.2-1.1-0.5c-0.1-0.1-0.2-0.2-0.4-0.2H65.9c-0.1,0-0.3,0.1-0.4,0.2        c-0.6,0.6-1.5,0.6-2.1,0c-0.6-0.6-0.6-1.5,0-2.1c0.7-0.7,1.6-1.1,2.6-1.1h50.7c1,0,1.9,0.4,2.6,1.1c0.6,0.6,0.6,1.5,0,2.1        C118.9,67.5,118.5,67.6,118.1,67.6z" fill="#B09AAC"/></g></g><g><g><path d="M113.4,87.5H98.6c-2.6,0-4.8-1.7-5.4-4.2c0,0,0-0.1,0-0.1L92.2,78c-0.1-0.5-0.5-0.8-0.9-0.8        s-0.8,0.3-0.9,0.8l-0.9,5.1c0,0,0,0.1,0,0.1c-0.6,2.5-2.9,4.2-5.4,4.2H69.2c-3.1,0-5.6-2.5-5.6-5.6c0-0.8,0.7-1.5,1.5-1.5        s1.5,0.7,1.5,1.5c0,1.4,1.2,2.6,2.6,2.6H84c1.2,0,2.2-0.8,2.5-1.9l0.9-5.1c0.3-1.9,2-3.3,3.9-3.3c1.9,0,3.5,1.4,3.9,3.3        l0.9,5.1c0.3,1.1,1.3,1.9,2.5,1.9h14.8c1.4,0,2.6-1.2,2.6-2.6c0-0.8,0.7-1.5,1.5-1.5s1.5,0.7,1.5,1.5        C119,85,116.5,87.5,113.4,87.5z" fill="#B09AAC"/></g></g><g><g><path d="M65.1,83.4c-0.8,0-1.5-0.7-1.5-1.5v-16c0-0.8,0.7-1.5,1.5-1.5s1.5,0.7,1.5,1.5v16        C66.6,82.7,65.9,83.4,65.1,83.4z" fill="#B09AAC"/></g></g><g><g><path d="M117.5,83.4c-0.8,0-1.5-0.7-1.5-1.5v-16c0-0.8,0.7-1.5,1.5-1.5s1.5,0.7,1.5,1.5v16        C119,82.7,118.4,83.4,117.5,83.4z" fill="#B09AAC"/></g></g></g></g><g><g><path d="M36.7,121.1c-0.8,0-1.5-0.7-1.5-1.5v-5c0-0.8,0.7-1.5,1.5-1.5s1.5,0.7,1.5,1.5v5      C38.2,120.4,37.5,121.1,36.7,121.1z" fill="#B09AAC"/></g></g><g><g><g><path d="M77.1,104.4v7.1l0,0c-3.8,13.1-22.3,13.1-26.1,0l0,0l0-7.1" fill="#F0D6BF"/></g></g><g opacity="0.15"><g><path d="M50.9,109.8c5.4,3,10.1,3.6,13.1,3.6c3.3,0,7.9-0.7,13.1-3.6v-5.5H50.9V109.8z" fill="#62345B"/></g></g><g><g><g><path d="M101.2,121.3l-24.1-9.8l0,0c-1.6,5.6-5.9,8.8-10.6,9.6c-0.2,0.1-0.3,0.1-0.5,0.2L101.2,121.3z" fill="#CFCDD1"/></g></g></g><g><g><g><path d="M50.9,111.5l-24.1,9.8h35.2c-0.2-0.1-0.3-0.1-0.5-0.2C56.9,120.3,52.5,117.1,50.9,111.5z" fill="#CFCDD1"/></g></g></g><g><g><path d="M64,122.8c-6.9,0-12.6-4.3-14.5-10.9c0-0.1-0.1-0.3-0.1-0.4v-7.1c0-0.8,0.7-1.5,1.5-1.5       s1.5,0.7,1.5,1.5v6.8c1.9,6.3,7.4,8.6,11.6,8.6s9.6-2.2,11.6-8.6v-6.8c0-0.8,0.7-1.5,1.5-1.5s1.5,0.7,1.5,1.5v7.1       c0,0.1,0,0.3-0.1,0.4C76.6,118.5,70.9,122.8,64,122.8z" fill="#62345B"/></g></g><g><g><g><g><path d="M99.3,58.5c0-28.7-14.3-43.4-35.3-43.4S28.7,29.9,28.7,58.5c-6.8,0.5-5.3,15.8,2.5,15         c9.8,27.4,23.5,34.6,32.8,34.6s23-7.2,32.8-34.6C104.5,74.4,106,59,99.3,58.5z" fill="#F0D6BF"/></g></g><g opacity="0.1"><g><path d="M103.4,63.1C103.4,63.1,103.4,63.1,103.4,63.1c0-0.2-0.1-0.4-0.1-0.6c0,0,0,0,0,0         c0-0.2-0.1-0.4-0.2-0.5c0,0,0-0.1,0-0.1c-0.1-0.2-0.1-0.3-0.2-0.5c0,0,0-0.1,0-0.1c-0.1-0.1-0.1-0.3-0.2-0.4         c0,0,0-0.1-0.1-0.1c-0.1-0.1-0.2-0.2-0.2-0.4c0,0-0.1-0.1-0.1-0.1c-0.1-0.1-0.2-0.2-0.2-0.3c0-0.1-0.1-0.1-0.1-0.2         c-0.1-0.1-0.2-0.2-0.3-0.2c-0.1,0-0.1-0.1-0.2-0.1c-0.1-0.1-0.2-0.1-0.3-0.2c-0.1,0-0.1-0.1-0.2-0.1         c-0.1-0.1-0.2-0.1-0.3-0.1c-0.1,0-0.1-0.1-0.2-0.1c-0.1,0-0.2-0.1-0.4-0.1c-0.1,0-0.1,0-0.2-0.1c-0.2,0-0.4-0.1-0.6-0.1         c0-28.7-14.3-43.4-35.3-43.4c-0.7,0-1.5,0-2.2,0.1c0,0-0.1,0-0.1,0c-0.7,0-1.4,0.1-2.1,0.2c0,0,0,0,0,0h0         c-18.5,2-30.8,16.6-30.8,43.1c-3.4,0.2-4.7,4.3-4.2,8.1h61.1c3.6,0,6.1,3.5,5,6.9c0,0,0,0,0,0c-8.3,23.3-21,33-31,34.1         c1.6,0.4,3,0.5,4.4,0.5c9.3,0,23-7.2,32.8-34.6C101.8,74.1,104.2,67.7,103.4,63.1z" fill="#62345B"/></g></g><g><g><path d="M99.7,58.6c-0.1,0-0.3,0-0.4-0.1c0-28.7-14.3-43.4-35.3-43.4c-20.5,0-34.7,14.2-35.2,41.9         C43,23.2,65,68.7,99.7,58.6z" fill="#DEBAAB"/></g></g><g><g><path d="M26.8,122.8c-0.6,0-1.2-0.4-1.4-0.9c-0.3-0.8,0.1-1.6,0.8-2l24.1-9.8c0.8-0.3,1.6,0.1,2,0.8         c0.3,0.8-0.1,1.6-0.8,2l-24.1,9.8C27.2,122.7,27,122.8,26.8,122.8z" fill="#62345B"/></g></g><g><g><path d="M101.2,122.8c-0.2,0-0.4,0-0.6-0.1l-24.1-9.8c-0.8-0.3-1.1-1.2-0.8-2c0.3-0.8,1.2-1.1,2-0.8l24.1,9.8         c0.8,0.3,1.1,1.2,0.8,2C102.3,122.4,101.8,122.8,101.2,122.8z" fill="#62345B"/></g></g><path d="M104.2,60.5c-0.8-1.6-2-2.7-3.4-3.2C100.3,30,86.7,13.7,64,13.7S27.7,30,27.3,57.3       c-1.5,0.5-2.7,1.6-3.4,3.2c-1.6,3.3-1,8.4,1.2,11.5c1.3,1.8,3.1,2.9,5.1,3c11.5,31.2,27.5,34.6,33.8,34.6       c6.4,0,22.3-3.4,33.8-34.6c2-0.1,3.8-1.2,5.1-3C105.2,68.9,105.7,63.9,104.2,60.5z M27.5,70.3c-1.6-2.2-2-6.1-0.9-8.5       c0.2-0.4,0.5-0.8,0.8-1.1c0.2,4.2,1,7.8,1.9,11C28.5,71.5,28,71,27.5,70.3z M95.4,73c-10.9,30.3-25.6,33.6-31.4,33.6       c-5.8,0-20.5-3.3-31.4-33.6c-1.2-4.3-2.4-8.8-2.4-14.5c0-26.2,12.6-41.9,33.8-41.9s33.8,15.7,33.8,41.9       C97.8,62.4,96.9,69,95.4,73z M100.5,70.3c-0.5,0.7-1,1.1-1.6,1.4c0.9-3.4,1.5-7.6,1.7-11c0.3,0.3,0.6,0.6,0.8,1.1       C102.6,64.2,102.1,68,100.5,70.3z" fill="#62345B"/><g><g><path d="M89.3,61.6c-11.6,0-21.6-5.2-30-9.6c-7.9-4.1-14.6-7.6-20-5.6c-3.8,1.4-6.9,5.6-9.7,12.7         c-0.3,0.8-1.2,1.2-1.9,0.9c-0.8-0.3-1.2-1.2-0.9-1.9c3.1-8.1,6.8-12.7,11.4-14.4c6.6-2.5,14,1.3,22.5,5.7         c11.1,5.8,23.6,12.3,38.8,7.8c0.8-0.2,1.6,0.2,1.9,1s-0.2,1.6-1,1.9C96.5,61.1,92.8,61.6,89.3,61.6z" fill="#62345B"/></g></g><g><g><path d="         M66.4,121.6" fill="none" stroke="#62345B" stroke-linecap="round" stroke-linejoin="round" stroke-miterlimit="10" stroke-width="3"/></g></g></g></g><g><g><g><path d="M26.4,53.6c1.5-0.4,2.5-1.8,2.5-3.4v-0.8c0-14.2,8.5-26.5,20.7-31.9v-2.4c0-1.9,1.6-3.5,3.5-3.5H60        h3.9h4h7c1.9,0,3.5,1.6,3.5,3.5v2.4l0.1,0C90.6,23,99,35.2,99,49.4v0.8c0,1.6,1,2.9,2.5,3.4l2.4,0.7v7h0H24.1h0v-7L26.4,53.6z        " fill="#92D3CB"/></g></g><g><g opacity="0.15"><g><path d="M101.6,53.6c-1.5-0.4-2.5-1.8-2.5-3.4v-0.8c0-14.2-8.4-26.4-20.6-31.9l-0.1,0v-2.4         c0-1.9-1.6-3.5-3.5-3.5H74c1.9,0,3.5,1.6,3.5,3.5l0.9,2.4l-0.8,0C89.7,23,92.8,35.2,92.8,49.4v0.8c0,1.6,1,2.9,2.5,3.4         l2.4,0.7v7c3.9,0,6.2,0,6.2,0h0v-7L101.6,53.6z" fill="#62345B"/></g></g></g><g><g><path d="M103.9,62.8H24.1c-0.8,0-1.5-0.7-1.5-1.5v-7c0-0.7,0.4-1.3,1.1-1.4l2.4-0.7c0.9-0.2,1.5-1,1.5-1.9        v-0.8c0-14.4,8.5-27.4,21.6-33.3c0.8-0.3,2,2.4,1.2,2.7c-12,5.4-19.8,17.4-19.8,30.6v0.8c0,2.2-1.5,4.2-3.6,4.8l-1.3,0.4v4.4        h76.8v-4.4l-1.3-0.4c-2.1-0.6-3.6-2.6-3.6-4.8v-0.8c0-13.1-7.7-25.1-19.7-30.5c-0.8-0.3,0.5-3.1,1.2-2.7        c13,5.9,21.5,19,21.5,33.3v0.8c0,0.9,0.6,1.7,1.5,1.9l2.4,0.7c0.6,0.2,1.1,0.8,1.1,1.4v7C105.4,62.1,104.7,62.8,103.9,62.8z" fill="#62345B"/></g></g><g><g><path d="M78.4,25.2c-0.8,0-1.5-0.7-1.5-1.5v-8.6c0-1.1-0.9-2-2-2H53.1c-1.1,0-2,0.9-2,2v8.6        c0,0.8-0.7,1.5-1.5,1.5s-1.5-0.7-1.5-1.5v-8.6c0-2.8,2.2-5,5-5h21.7c2.8,0,5,2.2,5,5v8.6C79.9,24.6,79.2,25.2,78.4,25.2z" fill="#62345B"/></g></g><g><g><path d="M63.9,35.4c-0.8,0-1.5-0.7-1.5-1.5V12.6c0-0.8,0.7-1.5,1.5-1.5s1.5,0.7,1.5,1.5v21.3        C65.4,34.7,64.7,35.4,63.9,35.4z" fill="#62345B"/></g></g><g><g><path d="M88.5,54.4h-49c-0.8,0-1.5-0.7-1.5-1.5s0.7-1.5,1.5-1.5h49c0.8,0,1.5,0.7,1.5,1.5S89.3,54.4,88.5,54.4        z" fill="#62345B"/></g></g></g></g></g></g></svg>